<?xml version="1.0" encoding="UTF-8"?>
<svg id="Camada_2" data-name="Camada 2" xmlns="http://www.w3.org/2000/svg" viewBox="0 0 570.3 84.77">
  <g id="Camada_1-2" data-name="Camada 1">
    <g>
      <path d="M0,8.48c0-2.33.83-4.33,2.49-5.99S6.14,0,8.48,0h39.56c2.33,0,4.33.83,5.99,2.49,1.66,1.66,2.49,3.66,2.49,5.99s-.83,4.33-2.49,5.99c-1.66,1.66-3.66,2.49-5.99,2.49h-28.26c-.6,0-1.23.23-1.87.68-.64.45-.96,1.13-.96,2.03v11.87c0,.75.26,1.34.79,1.75.53.42,1.2.62,2.03.62h22.6c2.33,0,4.33.83,5.99,2.49,1.66,1.66,2.49,3.66,2.49,5.99s-.83,4.33-2.49,5.99-3.66,2.49-5.99,2.49h-22.6c-.83,0-1.51.23-2.03.68-.53.45-.79,1.02-.79,1.7v23.06c0,2.34-.85,4.33-2.54,5.99-1.7,1.66-3.67,2.49-5.93,2.49s-4.33-.83-5.99-2.49c-1.66-1.66-2.49-3.65-2.49-5.99V8.48Z"/>
      <path d="M72.59,8.48c0-2.33.83-4.33,2.49-5.99s3.65-2.49,5.99-2.49,4.33.83,5.99,2.49c1.66,1.66,2.49,3.66,2.49,5.99v56.51c0,.83.3,1.51.9,2.03.6.53,1.24.79,1.92.79h28.26c.68,0,1.32-.26,1.92-.79.6-.53.9-1.2.9-2.03V8.48c0-2.33.83-4.33,2.49-5.99s3.65-2.49,5.99-2.49,4.33.83,5.99,2.49c1.66,1.66,2.49,3.66,2.49,5.99v56.51c0,.9-.17,1.85-.51,2.83-.34.98-.87,1.88-1.58,2.71-.72.83-1.6,1.53-2.66,2.09-1.06.56-2.3.85-3.73.85-.75,0-1.41.25-1.98.73-.56.49-.85,1.19-.85,2.09,0,2.34-.83,4.33-2.49,5.99-1.66,1.66-3.66,2.49-5.99,2.49h-28.26c-2.34,0-4.33-.83-5.99-2.49-1.66-1.66-2.49-3.65-2.49-5.99,0-.9-.28-1.6-.85-2.09-.56-.49-1.23-.73-1.98-.73-1.43,0-2.68-.28-3.73-.85-1.06-.57-1.94-1.26-2.66-2.09-.72-.83-1.24-1.73-1.58-2.71-.34-.98-.51-1.92-.51-2.83V8.48Z"/>
      <path d="M201.69,76.29c0,2.34-.83,4.33-2.49,5.99-1.66,1.66-3.66,2.49-5.99,2.49s-4.33-.83-5.99-2.49c-1.66-1.66-2.49-3.65-2.49-5.99V19.44c0-.68-.28-1.26-.85-1.75-.56-.49-1.23-.73-1.98-.73h-16.95c-2.34,0-4.33-.83-5.99-2.49-1.66-1.66-2.49-3.65-2.49-5.99s.83-4.33,2.49-5.99,3.65-2.49,5.99-2.49h56.51c2.33,0,4.33.83,5.99,2.49,1.66,1.66,2.49,3.66,2.49,5.99s-.83,4.33-2.49,5.99c-1.66,1.66-3.66,2.49-5.99,2.49h-16.95c-.83,0-1.51.28-2.03.85-.53.57-.79,1.23-.79,1.98v56.51Z"/>
      <path d="M246.03,8.48c0-2.33.83-4.33,2.49-5.99s3.65-2.49,5.99-2.49,4.33.83,5.99,2.49c1.66,1.66,2.49,3.66,2.49,5.99v56.51c0,.83.3,1.51.9,2.03.6.53,1.24.79,1.92.79h28.26c.68,0,1.32-.26,1.92-.79.6-.53.9-1.2.9-2.03V8.48c0-2.33.83-4.33,2.49-5.99,1.66-1.66,3.65-2.49,5.99-2.49s4.33.83,5.99,2.49c1.66,1.66,2.49,3.66,2.49,5.99v56.51c0,.9-.17,1.85-.51,2.83-.34.98-.87,1.88-1.58,2.71-.72.83-1.6,1.53-2.66,2.09-1.06.56-2.3.85-3.73.85-.75,0-1.41.25-1.98.73-.56.49-.85,1.19-.85,2.09,0,2.34-.83,4.33-2.49,5.99-1.66,1.66-3.65,2.49-5.99,2.49h-28.26c-2.34,0-4.33-.83-5.99-2.49-1.66-1.66-2.49-3.65-2.49-5.99,0-.9-.28-1.6-.85-2.09-.56-.49-1.23-.73-1.98-.73-1.43,0-2.68-.28-3.73-.85-1.06-.57-1.94-1.26-2.66-2.09-.72-.83-1.24-1.73-1.58-2.71-.34-.98-.51-1.92-.51-2.83V8.48Z"/>
      <path d="M329.92,8.48c0-2.33.83-4.33,2.49-5.99,1.66-1.66,3.65-2.49,5.99-2.49h33.91c2.33,0,4.33.83,5.99,2.49,1.66,1.66,2.49,3.66,2.49,5.99,0,.83.28,1.51.85,2.03.57.53,1.22.79,1.98.79,2.33,0,4.33.83,5.99,2.49,1.66,1.66,2.49,3.66,2.49,5.99v11.3c0,2.34-.83,4.33-2.49,5.99-1.66,1.66-3.66,2.49-5.99,2.49-1.06,0-1.79.3-2.2.9-.42.6-.62,1.24-.62,1.92,0,.98.3,1.7.9,2.15.6.45,1.24.68,1.92.68,2.33,0,4.33.83,5.99,2.49,1.66,1.66,2.49,3.66,2.49,5.99v22.6c0,2.34-.83,4.33-2.49,5.99-1.66,1.66-3.66,2.49-5.99,2.49s-4.33-.83-5.99-2.49c-1.66-1.66-2.49-3.65-2.49-5.99v-22.6c0-1.66-.83-2.6-2.49-2.83h-25.77v25.54c0,2.34-.85,4.31-2.54,5.93-1.7,1.62-3.67,2.43-5.93,2.43s-4.33-.83-5.99-2.49c-1.66-1.66-2.49-3.65-2.49-5.99V8.48ZM372.31,33.91c.68,0,1.32-.23,1.92-.68.6-.45.9-1.17.9-2.15v-11.3c0-.75-.27-1.41-.79-1.98-.53-.56-1.21-.85-2.03-.85h-22.6c-.83,0-1.51.28-2.03.85-.53.57-.79,1.23-.79,1.98v11.3c0,.98.3,1.7.9,2.15.6.45,1.24.68,1.92.68h22.6Z"/>
      <path d="M408.17,76.29c0-2.33.83-4.33,2.49-5.99,1.66-1.66,3.65-2.49,5.99-2.49s4.33.83,5.99,2.49c1.66,1.66,2.49,3.66,2.49,5.99s-.83,4.33-2.49,5.99c-1.66,1.66-3.66,2.49-5.99,2.49s-4.33-.83-5.99-2.49c-1.66-1.66-2.49-3.65-2.49-5.99Z"/>
      <path d="M455.33,67.81c.83,0,1.51-.28,2.03-.85.53-.56.79-1.22.79-1.98V19.44c0-.68-.28-1.26-.85-1.75-.56-.49-1.23-.73-1.98-.73h-5.65c-2.34,0-4.33-.83-5.99-2.49-1.66-1.66-2.49-3.65-2.49-5.99s.83-4.33,2.49-5.99c1.66-1.66,3.65-2.49,5.99-2.49h33.91c2.33,0,4.33.83,5.99,2.49,1.66,1.66,2.49,3.66,2.49,5.99s-.83,4.33-2.49,5.99c-1.66,1.66-3.66,2.49-5.99,2.49h-5.65c-.83,0-1.51.28-2.03.85-.53.57-.79,1.23-.79,1.98v45.55c0,.68.28,1.26.85,1.75.57.49,1.22.73,1.98.73h5.65c2.33,0,4.33.83,5.99,2.49,1.66,1.66,2.49,3.66,2.49,5.99s-.83,4.33-2.49,5.99c-1.66,1.66-3.66,2.49-5.99,2.49h-33.91c-2.34,0-4.33-.83-5.99-2.49-1.66-1.66-2.49-3.65-2.49-5.99s.83-4.33,2.49-5.99c1.66-1.66,3.65-2.49,5.99-2.49h5.65Z"/>
      <path d="M508.14,19.78c0-2.33.83-4.33,2.49-5.99s3.65-2.49,5.99-2.49c.83,0,1.51-.3,2.03-.9.53-.6.79-1.24.79-1.92,0-2.33.83-4.33,2.49-5.99,1.66-1.66,3.65-2.49,5.99-2.49h22.6c2.33,0,4.33.83,5.99,2.49,1.66,1.66,2.49,3.66,2.49,5.99,0,.83.28,1.51.85,2.03.57.53,1.22.79,1.98.79,2.33,0,4.33.83,5.99,2.49,1.66,1.66,2.49,3.66,2.49,5.99v56.62c0,2.34-.85,4.31-2.54,5.93-1.7,1.62-3.67,2.43-5.93,2.43s-4.33-.83-5.99-2.49c-1.66-1.66-2.49-3.65-2.49-5.99v-16.95c0-.83-.27-1.51-.79-2.03-.53-.53-1.21-.79-2.03-.79h-22.6c-.83,0-1.51.28-2.03.85-.53.56-.79,1.23-.79,1.98v17.07c0,2.34-.85,4.31-2.54,5.93-1.7,1.62-3.67,2.43-5.93,2.43s-4.33-.83-5.99-2.49c-1.66-1.66-2.49-3.65-2.49-5.99V19.78ZM550.52,39.56c.83,0,1.51-.28,2.03-.85.53-.56.79-1.22.79-1.98v-16.95c0-.83-.27-1.51-.79-2.03-.53-.53-1.21-.79-2.03-.79h-22.6c-.83,0-1.51.28-2.03.85-.53.57-.79,1.23-.79,1.98v16.95c0,.83.26,1.51.79,2.03.53.53,1.2.79,2.03.79h22.6Z"/>
    </g>
  </g>
</svg>